<svg width="64" height="64" xmlns="http://www.w3.org/2000/svg">

 <g>
  <title>background</title>
  <rect fill="none" id="canvas_background" height="402" width="582" y="-1" x="-1"/>
 </g>
 <g>
  <title>Layer 1</title>
  <path fill="#00bf00" id="Fill-43" d="m32,55.521393c-12.9,0 -23.4,-10.5 -23.4,-23.4c0,-12.9 10.5,-23.4 23.4,-23.4c12.9,0 23.4,10.5 23.4,23.4c0,12.9 -10.5,23.4 -23.4,23.4l0,0zm0,-44.3c-11.5,0 -20.9,9.4 -20.9,20.9s9.4,20.9 20.9,20.9s20.9,-9.4 20.9,-20.9s-9.4,-20.9 -20.9,-20.9l0,0z" class="st0"/>
  <polyline fill="#134563" points="29.20001220703125,42.221398666501045 17.29998779296875,30.221398666501045 19.100006103515625,28.421395614743233 29.20001220703125,38.62139256298542 44.899993896484375,22.921395614743233 46.70001220703125,24.721398666501045 29.20001220703125,42.221398666501045 " id="Fill-44" class="st0"/>
 </g>
</svg>